<svg width="4096" height="4096" version="1.1" xmlns="http://www.w3.org/2000/svg" desc="Created with imagetracer.js version 1.2.6" ><path fill="rgb(1,1,1)" stroke="rgb(1,1,1)" stroke-width="1" opacity="0.9764705882352941" d="M 2788.5 1379 Q 2794 1378 2795 1381.5 L 2839 1537.5 L 2652.5 1732 L 2649.5 1733 L 2647 1732 L 2646 1729.5 L 2646 1711.5 L 2647 1710.5 L 2647 1516.5 L 2648 1515.5 L 2648 1461.5 L 2650.5 1459 L 2788.5 1379 Z M 2785 1394 L 2780 1402 L 2699 1497 L 2658 1706 L 2659 1710 L 2778 1528 L 2780 1487 L 2781 1486 L 2781 1472 L 2782 1471 L 2782 1457 L 2783 1456 L 2783 1442 L 2784 1441 L 2784 1428 L 2785 1427 L 2785 1413 L 2786 1412 L 2786 1397 L 2787 1396 Q 2788 1393 2785 1394 Z M 2773 1397 L 2659 1464 L 2696 1489 L 2773 1399 L 2773 1397 Z M 2794 1405 L 2793 1415 L 2792 1416 L 2792 1430 L 2791 1431 L 2790 1461 L 2789 1462 L 2789 1476 L 2788 1477 L 2788 1491 L 2787 1492 L 2787 1506 L 2786 1507 L 2786 1522 L 2785 1526 L 2821 1532 L 2827 1532 L 2828 1533 L 2830 1533 L 2794 1405 Z M 2656 1470 L 2655 1560 L 2654 1561 L 2655 1687 L 2692 1497 L 2656 1470 Z M 2784 1533 L 2678 1693 L 2679 1694 L 2827 1541 L 2784 1533 Z " /><path fill="rgb(1,1,1)" stroke="rgb(1,1,1)" stroke-width="1" opacity="0.9764705882352941" d="M 2588.5 1390 L 2588 1391.5 L 2584 1407.5 L 2584 1416.5 L 2589.5 1424 L 2605 1433.5 L 2602.5 1434 L 2597.5 1432 L 2582.5 1430 L 2578.5 1431 L 2573 1436.5 L 2562.5 1454 L 2562 1452.5 Q 2567.2 1442.7 2567 1427.5 L 2561.5 1420 L 2544 1409.5 L 2546.5 1409 L 2559.5 1413 L 2571.5 1413 Q 2582.4 1403.9 2588.5 1390 Z " /><path fill="rgb(1,1,1)" stroke="rgb(1,1,1)" stroke-width="1" opacity="0.9764705882352941" d="M 2609.5 1463 L 2609 1464.5 L 2607 1472.5 L 2607 1480.5 L 2610.5 1485 L 2621 1491.5 L 2619.5 1492 L 2614.5 1490 L 2605.5 1489 L 2598 1495.5 L 2592.5 1505 L 2593 1503.5 L 2596 1488.5 L 2591.5 1482 L 2581 1475.5 L 2582.5 1476 L 2597.5 1478 L 2603 1473.5 L 2609.5 1463 Z " /><path fill="rgb(1,1,1)" stroke="rgb(1,1,1)" stroke-width="1" opacity="0.9764705882352941" d="M 2529.5 1493 L 2533.5 1493 L 2626 1545.5 L 2627 1623.5 L 2628 1624.5 L 2628 1671.5 L 2629 1672.5 L 2629 1721.5 Q 2628.3 1723.8 2624.5 1723 L 2501 1599.5 L 2501 1593.5 L 2512 1555.5 L 2527 1495.5 L 2529.5 1493 Z M 2537 1508 L 2536 1519 L 2537 1520 L 2537 1531 L 2538 1532 L 2538 1543 L 2539 1544 L 2542 1590 L 2617 1701 L 2618 1701 L 2591 1571 L 2537 1508 Z M 2550 1511 L 2554 1518 L 2595 1563 L 2615 1548 L 2550 1511 Z M 2529 1520 L 2510 1591 L 2510 1592 L 2515 1592 L 2535 1588 L 2534 1582 L 2534 1571 L 2533 1570 L 2533 1559 L 2532 1558 L 2532 1547 L 2531 1546 L 2531 1536 L 2530 1535 L 2530 1524 L 2529 1520 Z M 2619 1554 L 2598 1570 L 2620 1676 L 2621 1676 L 2621 1638 L 2620 1637 L 2620 1591 L 2619 1590 L 2619 1554 Z M 2535 1595 L 2512 1600 L 2538 1627 L 2598 1686 L 2538 1597 Q 2539 1593 2535 1595 Z " /><path fill="rgb(1,1,1)" stroke="rgb(1,1,1)" stroke-width="1" opacity="0.9764705882352941" d="M 2930.5 1529 L 2931 1531.5 L 2928 1539.5 L 2926 1553.5 Q 2927.1 1561.5 2933.5 1564 L 2950 1573.5 L 2947.5 1574 L 2934.5 1570 L 2921.5 1570 Q 2910.6 1579.6 2904.5 1594 L 2905 1592.5 L 2909 1577.5 L 2909 1564.5 L 2901.5 1557 L 2887 1548.5 L 2888.5 1549 L 2901.5 1552 L 2914.5 1552 Q 2925.1 1543.1 2930.5 1529 Z " /><path fill="rgb(1,1,1)" stroke="rgb(1,1,1)" stroke-width="1" opacity="0.9764705882352941" d="M 1091 1530 L 2154.5 1530 L 2155 1530.5 L 2155 1546 L 1107 1546 L 1107 1907.5 L 1106.5 1908 L 1091 1908 L 1091 1530 Z " /><path fill="rgb(1,1,1)" stroke="rgb(1,1,1)" stroke-width="1" opacity="0.9764705882352941" d="M 2864.5 1566 L 2865 1567.5 L 2862 1577.5 L 2862 1583.5 L 2866.5 1589 L 2875 1594.5 L 2872.5 1595 Q 2868.5 1591.5 2859.5 1593 L 2854 1597.5 L 2848.5 1607 L 2848 1605.5 L 2850 1600.5 L 2851 1590.5 L 2849 1587 L 2835 1578.5 L 2836.5 1579 L 2844.5 1581 L 2853.5 1581 L 2857 1578.5 L 2864.5 1566 Z " /><path fill="rgb(1,1,1)" stroke="rgb(1,1,1)" stroke-width="1" opacity="0.9764705882352941" d="M 2796.5 1614 L 2890.5 1639 L 2901 1643.5 Q 2901.7 1649.2 2899 1651.5 L 2848.5 1739 L 2846.5 1740 L 2795.5 1740 L 2794.5 1741 L 2672.5 1742 Q 2670 1741 2671 1736.5 L 2796.5 1614 Z M 2803 1623 L 2802 1628 L 2806 1649 Q 2812 1647 2822 1648 L 2823 1647 L 2873 1644 L 2874 1643 L 2803 1623 Z M 2795 1626 L 2721 1698 L 2708 1712 L 2799 1651 L 2795 1626 Z M 2882 1650 L 2881 1651 L 2869 1651 L 2868 1652 L 2818 1655 L 2817 1656 L 2805 1656 L 2696 1729 L 2695 1731 L 2824 1705 L 2887 1651 L 2882 1650 Z M 2883 1664 L 2831 1709 L 2847 1729 L 2883 1666 L 2883 1664 Z M 2822 1712 L 2717 1734 L 2717 1735 L 2731 1735 L 2732 1734 L 2795 1734 L 2796 1733 L 2839 1733 L 2826 1714 Q 2825 1711 2822 1712 Z " /><path fill="rgb(1,1,1)" stroke="rgb(1,1,1)" stroke-width="1" opacity="0.9764705882352941" d="M 2613.5 1758 L 2632.5 1758 L 2634 1759.5 L 2792 2105.5 L 2805 2130.5 Q 2811.8 2141.7 2821.5 2150 Q 2831.2 2158.2 2845.5 2162 L 2868 2165 L 2868 2186 L 2834.5 2186 L 2833.5 2185 L 2674.5 2185 L 2673.5 2186 L 2642 2186 L 2642 2165 L 2652.5 2165 L 2653.5 2164 L 2670.5 2163 L 2683.5 2160 Q 2694.3 2157.3 2700 2149.5 L 2703 2141.5 L 2703 2133.5 L 2696 2110.5 L 2667.5 2050 L 2510.5 2050 L 2510 2052.5 Q 2499.6 2071.1 2494 2094.5 L 2492 2105.5 L 2492 2125.5 Q 2495.3 2142.2 2506.5 2151 Q 2516.4 2158.6 2530.5 2162 L 2547.5 2164 L 2548.5 2165 L 2557 2165 L 2557 2187 L 2548.5 2187 L 2547.5 2186 L 2503.5 2186 L 2502.5 2185 L 2414.5 2185 L 2413.5 2186 L 2388 2186 L 2388 2165.5 L 2389.5 2165 Q 2423.2 2159.2 2441 2137.5 Q 2457.1 2118.1 2468 2093.5 L 2606 1772.5 L 2613.5 1758 Z M 2588 1871 L 2584 1877 L 2520 2028 L 2658 2028 L 2588 1871 Z " /><path fill="rgb(1,1,1)" stroke="rgb(1,1,1)" stroke-width="1" opacity="0.9764705882352941" d="M 1238 1762 L 1252.5 1762 L 1253.5 1763 L 1412.5 1763 L 1413.5 1762 L 1461.5 1762 L 1462.5 1763 L 1476.5 1763 L 1477.5 1764 L 1488.5 1764 L 1489.5 1765 L 1511.5 1767 L 1543.5 1774 L 1573.5 1784 Q 1614.1 1800.4 1641 1830.5 Q 1664.2 1855.8 1676 1892.5 L 1684 1929.5 L 1685 1951.5 L 1686 1952.5 L 1686 1974.5 L 1685 1975.5 L 1684 2001.5 L 1683 2002.5 L 1681 2019.5 L 1670 2056.5 Q 1653.6 2096.6 1624.5 2124 Q 1607.2 2140.7 1585.5 2153 L 1563.5 2164 L 1525.5 2177 L 1501.5 2182 L 1479.5 2184 L 1478.5 2185 L 1467.5 2185 L 1466.5 2186 L 1394.5 2186 L 1393.5 2185 L 1282.5 2185 L 1281.5 2186 L 1238 2186 L 1238 2165 L 1247.5 2165 L 1248.5 2164 L 1258.5 2164 L 1279.5 2160 Q 1288.5 2156.5 1294 2149.5 L 1298 2139.5 L 1299 2128.5 L 1300 2127.5 L 1300 1820.5 L 1297 1805.5 Q 1293.8 1796.8 1286.5 1792 L 1280.5 1789 L 1268.5 1786 L 1252.5 1785 L 1251.5 1784 L 1238 1784 L 1238 1762 Z M 1392 1783 L 1392 2133 L 1395 2148 L 1400 2156 L 1410 2162 L 1431 2166 L 1462 2165 L 1491 2160 L 1518 2150 L 1539 2136 Q 1552 2125 1561 2111 Q 1572 2093 1579 2071 L 1584 2051 L 1587 2034 L 1587 2027 L 1588 2026 L 1589 2006 L 1590 2005 L 1590 1976 L 1591 1975 L 1590 1972 L 1589 1931 L 1588 1930 L 1587 1914 L 1582 1888 L 1576 1868 L 1564 1842 L 1549 1822 Q 1526 1797 1488 1788 L 1472 1785 L 1465 1785 L 1464 1784 L 1453 1784 L 1452 1783 L 1392 1783 Z " /><path fill="rgb(1,1,1)" stroke="rgb(1,1,1)" stroke-width="1" opacity="0.9764705882352941" d="M 1743 1762 L 1759.5 1762 L 1760.5 1763 L 1802.5 1763 L 1803.5 1764 L 1899.5 1764 L 1900.5 1763 L 1944.5 1763 L 1945.5 1762 L 1959 1762 L 1959 1784 L 1944.5 1784 L 1943.5 1785 L 1928.5 1786 L 1916.5 1789 Q 1907.8 1792.3 1903 1799.5 L 1900 1805.5 L 1898 1814.5 L 1898 1822.5 L 1897 1823.5 L 1897 2125.5 L 1901 2145.5 L 1909.5 2156 L 1917.5 2160 L 1925.5 2162 L 1959 2165 L 1959 2186 L 1928.5 2186 L 1927.5 2185 L 1770.5 2185 L 1769.5 2186 L 1743 2186 L 1743 2165 L 1753.5 2165 L 1754.5 2164 L 1763.5 2164 L 1764.5 2163 L 1772.5 2163 L 1781.5 2161 Q 1792.8 2158.3 1799 2150.5 L 1804 2138.5 L 1805 2121.5 L 1806 2120.5 L 1806 1829.5 L 1805 1828.5 L 1805 1816.5 L 1803 1807.5 Q 1800.5 1799 1794.5 1794 L 1779.5 1787 L 1774.5 1787 L 1767.5 1785 L 1743 1784 L 1743 1762 Z " /><path fill="rgb(1,1,1)" stroke="rgb(1,1,1)" stroke-width="1" opacity="0.9764705882352941" d="M 1985 1762 L 2000.5 1762 L 2001.5 1763 L 2046.5 1763 L 2047.5 1764 L 2148.5 1764 L 2149.5 1763 L 2195.5 1763 L 2196.5 1762 L 2211 1762 L 2211 1782.5 L 2209.5 1784 L 2197.5 1784 L 2196.5 1785 L 2187.5 1785 L 2186.5 1786 L 2175.5 1787 L 2159.5 1793 L 2153 1799.5 Q 2149 1804 2150 1813.5 L 2152 1823.5 L 2157 1837.5 L 2265 2076 Q 2267.7 2077.1 2267 2074.5 L 2351 1878.5 L 2360 1847.5 L 2361 1825.5 L 2359 1816.5 L 2355 1807.5 L 2345.5 1797 L 2335.5 1791 L 2323.5 1787 L 2313.5 1785 L 2306.5 1785 L 2305.5 1784 L 2296 1784 L 2296 1762 L 2310.5 1762 L 2311.5 1763 L 2349.5 1763 L 2350.5 1764 L 2420.5 1764 L 2421.5 1763 L 2452.5 1763 L 2453.5 1762 L 2465 1762 L 2465 1783.5 L 2461.5 1784 Q 2427.6 1790.6 2410 1813.5 L 2398 1830.5 L 2381 1863.5 L 2240 2191 L 2219.5 2191 L 2219 2189.5 L 2055 1831.5 Q 2045.9 1811.6 2030.5 1798 Q 2013.9 1784.3 1985 1784 L 1985 1762 Z " /><path fill="rgb(1,1,1)" stroke="rgb(1,1,1)" stroke-width="1" opacity="0.9764705882352941" d="M 1828.5 2336 L 1851.5 2336 L 1856.5 2337 Q 1871 2340 1881 2347.5 L 1878 2355 L 1860.5 2347 L 1845.5 2344 L 1834.5 2344 L 1820.5 2347 L 1809 2354.5 L 1803 2366.5 L 1803 2375.5 Q 1804.5 2383.1 1809.5 2387 L 1821.5 2394 L 1862.5 2405 Q 1874.1 2408.9 1881 2417.5 Q 1888.5 2425 1886 2442.5 Q 1883 2454.5 1874.5 2461 Q 1866.6 2467.6 1854.5 2470 L 1830.5 2471 L 1809.5 2466 Q 1798 2461.5 1790 2453.5 L 1794.5 2446 Q 1803.9 2455.6 1818.5 2460 L 1827.5 2462 L 1849.5 2462 L 1864.5 2457 L 1872 2450.5 Q 1876.8 2444.8 1877 2434.5 L 1874 2424.5 L 1867.5 2418 L 1848.5 2410 L 1816.5 2402 Q 1806.6 2398.4 1800 2391.5 L 1794 2380.5 L 1793 2368.5 Q 1795.3 2367.3 1794 2362.5 L 1798 2353.5 L 1804.5 2346 L 1816.5 2339 L 1828.5 2336 Z " /><path fill="rgb(1,1,1)" stroke="rgb(1,1,1)" stroke-width="1" opacity="0.9764705882352941" d="M 2421.5 2336 L 2444.5 2336 L 2462.5 2341 Q 2478.7 2348.3 2489 2361.5 L 2499 2379.5 L 2502 2391.5 Q 2500.3 2399.7 2503 2403.5 L 2502 2404.5 L 2502 2415.5 L 2498 2429.5 Q 2491.3 2444.8 2479.5 2455 Q 2468.5 2464.5 2452.5 2469 L 2441.5 2471 L 2424.5 2471 L 2413.5 2469 L 2402.5 2465 Q 2389.8 2459.2 2381 2449.5 Q 2370.6 2438.9 2366 2422.5 L 2364 2413.5 L 2364 2392.5 Q 2369.2 2365.2 2387.5 2351 Q 2400.6 2339.6 2421.5 2336 Z M 2423 2345 Q 2403 2349 2392 2360 Q 2382 2369 2377 2382 L 2373 2402 L 2374 2415 L 2376 2423 Q 2380 2433 2386 2441 L 2402 2454 L 2416 2460 L 2426 2462 Q 2455 2463 2471 2450 L 2485 2434 L 2490 2423 L 2493 2407 Q 2493 2378 2478 2364 Q 2468 2352 2453 2347 L 2444 2345 L 2423 2345 Z " /><path fill="rgb(1,1,1)" stroke="rgb(1,1,1)" stroke-width="1" opacity="0.9764705882352941" d="M 1391 2337 L 1479.5 2337 L 1480 2337.5 L 1480 2345 L 1401 2345 L 1401 2402 L 1471.5 2402 L 1472 2402.5 L 1472 2411 L 1401 2411 L 1401 2469.5 L 1400.5 2470 L 1391 2470 L 1391 2337 Z " /><path fill="rgb(1,1,1)" stroke="rgb(1,1,1)" stroke-width="1" opacity="0.9764705882352941" d="M 1626.5 2337 L 1635.5 2337 L 1637 2338.5 L 1697 2469.5 L 1686 2470 L 1671 2434.5 L 1668.5 2432 L 1593.5 2432 L 1591 2434.5 L 1574.5 2470 L 1565.5 2470 L 1565 2468.5 L 1626.5 2337 Z M 1631 2348 L 1597 2423 L 1597 2424 L 1666 2424 L 1631 2348 Z " /><path fill="rgb(1,1,1)" stroke="rgb(1,1,1)" stroke-width="1" opacity="0.9764705882352941" d="M 2001 2337 L 2010.5 2337 L 2011 2337.5 L 2011 2398 L 2100 2398 L 2100 2337.5 L 2100.5 2337 L 2110 2337 L 2110 2469.5 L 2109.5 2470 L 2100 2470 L 2100 2407 L 2011 2407 L 2011 2469.5 L 2010.5 2470 L 2001 2470 L 2001 2337 Z " /><path fill="rgb(1,1,1)" stroke="rgb(1,1,1)" stroke-width="1" opacity="0.9764705882352941" d="M 2238 2337 L 2247.5 2337 L 2248 2337.5 L 2248 2470 L 2238.5 2470 L 2238 2469.5 L 2238 2337 Z " /><path fill="rgb(1,1,1)" stroke="rgb(1,1,1)" stroke-width="1" opacity="0.9764705882352941" d="M 2618 2337 L 2626.5 2337 L 2630 2340.5 L 2716.5 2451 L 2717 2337 L 2726.5 2337 L 2727 2337.5 L 2727 2470 Q 2717.3 2472 2715 2465.5 L 2628.5 2355 L 2628 2470 L 2618.5 2470 L 2618 2469.5 L 2618 2337 Z " /><path fill="rgb(1,1,1)" stroke="rgb(1,1,1)" stroke-width="1" opacity="0.9764705882352941" d="M 1268.5 2611 L 2229.5 2611 L 2230 2611.5 L 2230 2627 L 1757.5 2627 L 1756.5 2628 L 1755.5 2627 L 1267 2627 L 1267 2612.5 L 1268.5 2611 Z " /><path fill="rgb(0,0,0)" stroke="rgb(0,0,0)" stroke-width="1" opacity="0" d="M 0 0 L 4096 0 L 4096 4096 L 0 4096 L 0 0 Z M 2789 1379 L 2651 1459 L 2648 1462 L 2648 1516 L 2647 1517 L 2647 1711 L 2646 1712 L 2646 1730 L 2647 1732 L 2650 1733 L 2653 1732 L 2839 1538 L 2795 1382 Q 2794 1378 2789 1379 Z M 2588 1391 Q 2582 1404 2572 1413 L 2560 1413 L 2547 1409 L 2544 1410 L 2562 1420 L 2567 1428 L 2567 1436 L 2563 1450 L 2564 1452 L 2573 1437 L 2579 1431 L 2583 1430 L 2598 1432 L 2603 1434 L 2605 1434 L 2590 1424 L 2584 1417 L 2584 1408 L 2588 1394 L 2588 1391 Z M 2609 1464 L 2603 1474 L 2598 1478 L 2587 1477 L 2586 1476 L 2582 1477 L 2592 1482 L 2596 1489 L 2593 1502 L 2594 1504 L 2598 1496 L 2606 1489 L 2615 1490 L 2620 1492 L 2621 1492 L 2611 1485 L 2607 1481 Q 2606 1472 2609 1468 L 2609 1464 Z M 2530 1493 L 2527 1496 L 2512 1556 L 2501 1594 L 2501 1600 L 2625 1723 Q 2628 1724 2629 1722 L 2629 1673 L 2628 1672 L 2628 1625 L 2627 1624 L 2626 1546 L 2534 1493 L 2530 1493 Z M 2931 1529 Q 2925 1543 2915 1552 L 2902 1552 L 2892 1549 L 2888 1550 Q 2901 1554 2909 1565 L 2909 1578 L 2905 1591 L 2906 1593 Q 2911 1579 2922 1570 L 2935 1570 L 2948 1574 L 2950 1574 L 2934 1564 Q 2927 1561 2926 1554 L 2928 1540 L 2931 1532 L 2931 1529 Z M 1091 1530 L 1091 1908 L 1107 1908 L 1107 1908 L 1107 1546 L 2155 1546 L 2155 1531 L 2155 1530 L 1091 1530 Z M 2864 1568 L 2857 1579 L 2854 1581 Q 2844 1582 2839 1579 L 2836 1580 L 2849 1587 L 2851 1591 L 2849 1602 L 2850 1605 L 2854 1598 L 2860 1593 Q 2869 1592 2873 1595 L 2875 1595 L 2867 1589 L 2862 1584 L 2862 1578 L 2864 1572 L 2864 1568 Z M 2797 1614 L 2678 1730 L 2671 1737 L 2671 1741 L 2676 1743 L 2679 1742 L 2728 1742 L 2729 1741 L 2847 1740 L 2849 1739 L 2899 1652 Q 2902 1649 2901 1644 L 2891 1639 L 2797 1614 Z M 1172 1625 L 1172 2660 L 1757 2660 L 1757 2660 L 1757 2628 L 1758 2627 L 2230 2627 L 2230 2612 L 2230 2611 L 1757 2611 L 1757 2186 L 1770 2186 L 1771 2185 L 1928 2185 L 1929 2186 L 1959 2186 L 1959 2165 L 1926 2162 L 1918 2160 L 1910 2156 L 1901 2146 L 1897 2126 L 1897 1824 L 1898 1823 L 1898 1815 L 1900 1806 L 1903 1800 Q 1908 1792 1917 1789 L 1929 1786 L 1944 1785 L 1945 1784 L 1959 1784 L 1959 1762 L 1946 1762 L 1945 1763 L 1901 1763 L 1900 1764 L 1804 1764 L 1803 1763 L 1761 1763 L 1760 1762 L 1757 1762 L 1757 1626 L 1757 1625 L 1172 1625 Z M 2614 1758 L 2606 1773 L 2468 2094 Q 2457 2118 2441 2138 Q 2423 2159 2390 2165 L 2388 2166 L 2388 2186 L 2414 2186 L 2415 2185 L 2503 2185 L 2504 2186 L 2548 2186 L 2549 2187 L 2557 2187 L 2557 2165 L 2549 2165 L 2548 2164 L 2531 2162 Q 2516 2159 2507 2151 Q 2495 2142 2492 2126 L 2492 2106 L 2494 2095 Q 2500 2071 2510 2053 L 2511 2050 L 2668 2050 L 2696 2111 L 2703 2134 L 2703 2142 L 2700 2150 Q 2694 2157 2684 2160 L 2671 2163 L 2654 2164 L 2653 2165 L 2642 2165 L 2642 2186 L 2674 2186 L 2675 2185 L 2834 2185 L 2835 2186 L 2868 2186 L 2868 2165 L 2846 2162 Q 2831 2158 2822 2150 Q 2812 2142 2805 2131 L 2792 2106 L 2634 1760 L 2633 1758 L 2614 1758 Z M 1985 1762 L 1985 1784 Q 2014 1784 2031 1798 Q 2046 1812 2055 1832 L 2219 2190 L 2220 2191 L 2240 2191 L 2381 1864 L 2398 1831 L 2410 1814 Q 2428 1791 2462 1784 L 2465 1784 L 2465 1762 L 2454 1762 L 2453 1763 L 2422 1763 L 2421 1764 L 2351 1764 L 2350 1763 L 2312 1763 L 2311 1762 L 2296 1762 L 2296 1784 L 2306 1784 L 2307 1785 L 2314 1785 L 2324 1787 L 2336 1791 L 2346 1797 L 2355 1808 L 2359 1817 L 2361 1826 L 2360 1848 L 2351 1879 L 2267 2075 Q 2268 2077 2265 2076 L 2157 1838 L 2152 1824 L 2150 1814 Q 2149 1804 2153 1800 L 2160 1793 L 2176 1787 L 2187 1786 L 2188 1785 L 2197 1785 L 2198 1784 L 2210 1784 L 2211 1783 L 2211 1762 L 2197 1762 L 2196 1763 L 2150 1763 L 2149 1764 L 2048 1764 L 2047 1763 L 2002 1763 L 2001 1762 L 1985 1762 Z M 1829 2336 L 1817 2339 L 1805 2346 L 1798 2354 L 1794 2363 Q 1795 2367 1793 2369 L 1794 2381 L 1800 2392 Q 1807 2398 1817 2402 L 1849 2410 L 1868 2418 L 1874 2425 L 1877 2435 Q 1877 2445 1872 2451 L 1865 2457 L 1850 2462 L 1828 2462 L 1819 2460 Q 1804 2456 1795 2446 L 1790 2454 Q 1798 2461 1810 2466 L 1831 2471 L 1855 2470 Q 1867 2468 1875 2461 Q 1883 2454 1886 2443 Q 1889 2425 1881 2418 Q 1874 2409 1863 2405 L 1822 2394 L 1810 2387 Q 1804 2383 1803 2376 L 1803 2367 L 1809 2355 L 1821 2347 L 1835 2344 L 1846 2344 L 1861 2347 L 1878 2355 L 1881 2348 Q 1871 2340 1857 2337 L 1852 2336 L 1829 2336 Z M 2422 2336 Q 2401 2340 2388 2351 Q 2369 2365 2364 2393 L 2364 2414 L 2366 2423 Q 2371 2439 2381 2450 Q 2390 2459 2403 2465 L 2414 2469 L 2425 2471 L 2442 2471 L 2453 2469 Q 2468 2464 2480 2455 Q 2491 2445 2498 2430 L 2502 2416 L 2502 2405 L 2503 2404 Q 2500 2400 2502 2392 L 2499 2380 L 2489 2362 Q 2479 2348 2463 2341 L 2445 2336 L 2422 2336 Z M 2001 2337 L 2001 2470 L 2011 2470 L 2011 2470 L 2011 2407 L 2100 2407 L 2100 2470 L 2110 2470 L 2110 2470 L 2110 2337 L 2101 2337 L 2100 2338 L 2100 2398 L 2011 2398 L 2011 2338 L 2011 2337 L 2001 2337 Z M 2238 2337 L 2238 2470 L 2239 2470 L 2248 2470 L 2248 2338 L 2248 2337 L 2238 2337 Z M 2618 2337 L 2618 2470 L 2619 2470 L 2628 2470 L 2629 2355 L 2715 2466 Q 2717 2472 2727 2470 L 2727 2338 L 2727 2337 L 2717 2337 L 2717 2451 L 2630 2341 L 2627 2337 L 2618 2337 Z " /><path fill="rgb(0,0,0)" stroke="rgb(0,0,0)" stroke-width="1" opacity="0" d="M 2785 1394 Q 2787.7 1392.9 2787 1395.5 L 2780.5 1401 L 2785 1395.5 L 2785 1394 Z " /><path fill="rgb(0,0,0)" stroke="rgb(0,0,0)" stroke-width="1" opacity="0" d="M 2772.5 1397 L 2773 1398.5 L 2755.5 1418 L 2674.5 1475 L 2659 1463.5 L 2772.5 1397 Z " /><path fill="rgb(0,0,0)" stroke="rgb(0,0,0)" stroke-width="1" opacity="0" d="M 2655.5 1470 L 2670 1480 L 2654.5 1646 L 2654 1560.5 L 2655 1559.5 L 2655.5 1470 Z " /><path fill="rgb(0,0,0)" stroke="rgb(0,0,0)" stroke-width="1" opacity="0" d="M 2528.5 1520 L 2530 1523.5 L 2531 1546.5 L 2530 1547.5 L 2528 1589 Q 2520.6 1591.8 2509.5 1592 L 2510 1590.5 L 2528.5 1520 Z " /><path fill="rgb(0,0,0)" stroke="rgb(0,0,0)" stroke-width="1" opacity="0" d="M 2529.5 1596 Q 2535.3 1595.3 2536 1599.5 L 2567 1638.5 L 2600 1687.5 L 2538 1626.5 L 2512 1599.5 L 2529.5 1596 Z " /><path fill="rgb(0,0,0)" stroke="rgb(0,0,0)" stroke-width="1" opacity="0" d="M 2802.5 1623 L 2874 1642.5 Q 2873 1645 2868.5 1644 L 2867.5 1643 L 2843.5 1643 L 2842.5 1642 L 2805 1642 L 2802 1627.5 L 2802.5 1623 Z " /><path fill="rgb(0,0,0)" stroke="rgb(0,0,0)" stroke-width="1" opacity="0" d="M 2794.5 1626 L 2798 1643.5 L 2737 1691 Q 2738.1 1693.7 2735.5 1693 L 2706.5 1713 L 2720.5 1698 L 2794.5 1626 Z " /><path fill="rgb(0,0,0)" stroke="rgb(0,0,0)" stroke-width="1" opacity="0" d="M 1757 1785 L 1767.5 1785 L 1768.5 1786 L 1779.5 1787 Q 1791.1 1789.9 1798 1797.5 L 1803 1807.5 L 1805 1816.5 L 1805 1828.5 L 1806 1829.5 L 1806 2120.5 L 1805 2121.5 L 1804 2138.5 L 1799 2150.5 L 1794.5 2155 Q 1787.6 2160.1 1777.5 2162 L 1757 2164 L 1757 1785 Z " /><path fill="rgb(0,0,0)" stroke="rgb(0,0,0)" stroke-width="1" opacity="0" d="M 2587.5 1871 L 2658 2028 L 2520 2027.5 L 2584 1876.5 L 2587.5 1871 Z " /><path fill="rgb(0,0,0)" stroke="rgb(0,0,0)" stroke-width="1" opacity="0" d="M 2422.5 2345 L 2443.5 2345 L 2452.5 2347 Q 2468.2 2352.3 2478 2363.5 Q 2492.5 2378 2493 2406.5 L 2490 2422.5 L 2485 2433.5 L 2470.5 2450 Q 2455.4 2463.4 2425.5 2462 L 2415.5 2460 L 2401.5 2454 L 2386 2440.5 Q 2379.5 2433 2376 2422.5 L 2374 2414.5 L 2373 2401.5 L 2377 2381.5 Q 2382.1 2368.6 2391.5 2360 Q 2403.1 2348.6 2422.5 2345 Z " /><path fill="rgb(253,211,211)" stroke="rgb(253,211,211)" stroke-width="1" opacity="0.996078431372549" d="M 2784.5 1397 L 2786 1397.5 L 2786 1411.5 L 2785 1412.5 L 2785 1426.5 L 2784 1427.5 L 2784 1440.5 L 2783 1441.5 L 2783 1455.5 L 2782 1456.5 L 2782 1470.5 L 2781 1471.5 L 2781 1485.5 L 2780 1486.5 L 2778 1527.5 L 2657.5 1711 L 2658 1709.5 L 2660 1694.5 L 2667 1663.5 L 2667 1658.5 L 2675 1622.5 L 2675 1617.5 L 2682 1586.5 L 2682 1581.5 L 2699 1496.5 L 2774 1407.5 L 2784.5 1397 Z " /><path fill="rgb(253,211,211)" stroke="rgb(253,211,211)" stroke-width="1" opacity="0.996078431372549" d="M 2793.5 1405 L 2830 1532.5 L 2827.5 1533 L 2826.5 1532 L 2820.5 1532 L 2785 1526 L 2786 1521.5 L 2786 1506.5 L 2787 1505.5 L 2787 1491.5 L 2788 1490.5 L 2788 1476.5 L 2789 1475.5 L 2789 1461.5 L 2790 1460.5 L 2791 1430.5 L 2792 1429.5 L 2792 1415.5 L 2793 1414.5 L 2793.5 1405 Z " /><path fill="rgb(253,211,211)" stroke="rgb(253,211,211)" stroke-width="1" opacity="0.996078431372549" d="M 2754.5 1418 L 2755 1419.5 L 2695.5 1489 L 2675 1476 L 2677.5 1472 L 2754.5 1418 Z " /><path fill="rgb(253,211,211)" stroke="rgb(253,211,211)" stroke-width="1" opacity="0.996078431372549" d="M 2670.5 1481 L 2692 1496.5 L 2654.5 1687 L 2654 1646.5 L 2655 1645.5 L 2655 1634.5 L 2656 1633.5 L 2657 1613.5 L 2658 1612.5 L 2659 1592.5 L 2660 1591.5 L 2660 1581.5 L 2661 1580.5 L 2662 1560.5 L 2663 1559.5 L 2663 1549.5 L 2664 1548.5 L 2665 1528.5 L 2666 1527.5 L 2666 1517.5 L 2668 1506.5 L 2669 1485.5 L 2670.5 1481 Z " /><path fill="rgb(253,211,211)" stroke="rgb(253,211,211)" stroke-width="1" opacity="0.996078431372549" d="M 2536.5 1508 L 2591 1570.5 L 2618 1700.5 L 2617 1700.5 L 2542 1589.5 L 2539 1543.5 L 2538 1542.5 L 2538 1531.5 L 2537 1530.5 L 2537 1519.5 L 2536 1518.5 L 2536.5 1508 Z " /><path fill="rgb(253,211,211)" stroke="rgb(253,211,211)" stroke-width="1" opacity="0.996078431372549" d="M 2548.5 1510 L 2615 1547.5 L 2594.5 1563 L 2548.5 1510 Z " /><path fill="rgb(253,211,211)" stroke="rgb(253,211,211)" stroke-width="1" opacity="0.996078431372549" d="M 2783.5 1533 L 2827 1540.5 L 2677.5 1695 L 2678 1693.5 L 2783.5 1533 Z " /><path fill="rgb(253,211,211)" stroke="rgb(253,211,211)" stroke-width="1" opacity="0.996078431372549" d="M 2531.5 1546 L 2535 1588 L 2528 1589 L 2530 1547.5 L 2531.5 1546 Z " /><path fill="rgb(253,211,211)" stroke="rgb(253,211,211)" stroke-width="1" opacity="0.996078431372549" d="M 2618.5 1554 L 2619 1589.5 L 2620 1590.5 L 2620 1636.5 L 2621 1637.5 L 2621 1675.5 L 2620 1675.5 L 2598 1569.5 L 2618.5 1554 Z " /><path fill="rgb(253,211,211)" stroke="rgb(253,211,211)" stroke-width="1" opacity="0.996078431372549" d="M 2534.5 1595 Q 2538.9 1593.5 2538 1596.5 L 2564 1634.5 L 2561 1632.5 L 2533 1596.5 L 2534.5 1595 Z " /><path fill="rgb(253,211,211)" stroke="rgb(253,211,211)" stroke-width="1" opacity="0.996078431372549" d="M 1172 1625 L 1756.5 1625 L 1757 1625.5 L 1757 1762 L 1743 1762 L 1743 1784 L 1755.5 1784 L 1757 1785.5 L 1757 2163.5 L 1754.5 2164 L 1753.5 2165 L 1743 2165 L 1743 2186 L 1756.5 2186 L 1757 2186.5 L 1757 2611 L 1268.5 2611 L 1267 2612.5 L 1267 2626.5 L 1267.5 2627 L 1755.5 2627 L 1757 2628.5 L 1757 2660 L 1172 2660 L 1172 1625 Z M 1238 1762 L 1238 1784 L 1252 1784 L 1253 1785 L 1269 1786 L 1281 1789 L 1287 1792 Q 1294 1797 1297 1806 L 1300 1821 L 1300 2128 L 1299 2129 L 1298 2140 L 1294 2150 Q 1289 2157 1280 2160 L 1259 2164 L 1249 2164 L 1248 2165 L 1238 2165 L 1238 2186 L 1282 2186 L 1283 2185 L 1394 2185 L 1395 2186 L 1467 2186 L 1468 2185 L 1479 2185 L 1480 2184 L 1502 2182 L 1526 2177 L 1564 2164 L 1586 2153 Q 1607 2141 1625 2124 Q 1654 2097 1670 2057 L 1681 2020 L 1683 2003 L 1684 2002 L 1685 1976 L 1686 1975 L 1686 1953 L 1685 1952 L 1684 1930 L 1676 1893 Q 1664 1856 1641 1831 Q 1614 1800 1574 1784 L 1544 1774 L 1512 1767 L 1490 1765 L 1489 1764 L 1478 1764 L 1477 1763 L 1463 1763 L 1462 1762 L 1414 1762 L 1413 1763 L 1254 1763 L 1253 1762 L 1238 1762 Z M 1391 2337 L 1391 2470 L 1401 2470 L 1401 2470 L 1401 2411 L 1472 2411 L 1472 2403 L 1472 2402 L 1401 2402 L 1401 2345 L 1480 2345 L 1480 2338 L 1480 2337 L 1391 2337 Z M 1627 2337 L 1565 2469 L 1566 2470 L 1575 2470 L 1591 2435 L 1594 2432 L 1669 2432 L 1671 2435 L 1686 2470 L 1697 2470 L 1637 2339 L 1636 2337 L 1627 2337 Z " /><path fill="rgb(253,211,211)" stroke="rgb(253,211,211)" stroke-width="1" opacity="0.996078431372549" d="M 2805 1642 L 2842.5 1642 L 2843.5 1643 L 2868 1643.5 L 2860.5 1645 L 2810.5 1648 L 2806 1649 L 2805 1642 Z " /><path fill="rgb(253,211,211)" stroke="rgb(253,211,211)" stroke-width="1" opacity="0.996078431372549" d="M 2797.5 1644 L 2799 1650.5 L 2739.5 1691 L 2742.5 1687 L 2797.5 1644 Z " /><path fill="rgb(253,211,211)" stroke="rgb(253,211,211)" stroke-width="1" opacity="0.996078431372549" d="M 2881.5 1650 L 2887 1650.5 L 2823.5 1705 L 2694.5 1731 L 2695.5 1729 L 2804.5 1656 L 2816.5 1656 L 2817.5 1655 L 2867.5 1652 L 2868.5 1651 L 2880.5 1651 L 2881.5 1650 Z " /><path fill="rgb(253,211,211)" stroke="rgb(253,211,211)" stroke-width="1" opacity="0.996078431372549" d="M 2883.5 1663 L 2883 1664.5 L 2846.5 1729 L 2831 1708.5 L 2883.5 1663 Z " /><path fill="rgb(253,211,211)" stroke="rgb(253,211,211)" stroke-width="1" opacity="0.996078431372549" d="M 2821.5 1712 Q 2825.3 1711.3 2826 1713.5 L 2839 1733 L 2795.5 1733 L 2794.5 1734 L 2731.5 1734 L 2730.5 1735 L 2716.5 1735 L 2716.5 1734 L 2821.5 1712 Z " /><path fill="rgb(253,211,211)" stroke="rgb(253,211,211)" stroke-width="1" opacity="0.996078431372549" d="M 2675.5 1742 L 2678 1742.5 L 2675.5 1743 L 2675.5 1742 Z " /><path fill="rgb(253,211,211)" stroke="rgb(253,211,211)" stroke-width="1" opacity="0.996078431372549" d="M 1392 1783 L 1451.5 1783 L 1452.5 1784 L 1463.5 1784 L 1464.5 1785 L 1471.5 1785 L 1487.5 1788 Q 1526 1797 1549 1821.5 L 1564 1841.5 L 1576 1867.5 L 1582 1887.5 L 1587 1913.5 L 1588 1929.5 L 1589 1930.5 L 1590 1971.5 L 1591 1974.5 L 1590 1975.5 L 1590 2004.5 L 1589 2005.5 L 1588 2025.5 L 1587 2026.5 L 1587 2033.5 L 1584 2050.5 L 1579 2070.5 Q 1572.2 2092.7 1561 2110.5 Q 1551.6 2125.1 1538.5 2136 L 1517.5 2150 L 1490.5 2160 L 1461.5 2165 L 1430.5 2166 L 1409.5 2162 L 1400 2155.5 L 1395 2147.5 L 1392 2132.5 L 1392 1783 Z " /><path fill="rgb(253,211,211)" stroke="rgb(253,211,211)" stroke-width="1" opacity="0.996078431372549" d="M 1630.5 2348 L 1666 2423.5 L 1596.5 2424 L 1597 2422.5 L 1630.5 2348 Z " /></svg>